<?xml version="1.0" encoding="UTF-8"?>
<!DOCTYPE svg PUBLIC "-//W3C//DTD SVG 1.1//EN" "http://www.w3.org/Graphics/SVG/1.1/DTD/svg11.dtd">
<svg version="1.1" xmlns="http://www.w3.org/2000/svg" xmlns:xlink="http://www.w3.org/1999/xlink" x="0" y="0" width="448" height="491" viewBox="0, 0, 448, 491">
  <g id="Layer_1">
    <path d="M341.521,189.687 C344.215,191.486 347.427,192.428 350.62,192.293 C354.06,192.211 357.419,190.86 360.094,188.603 C362.75,186.327 364.697,183.125 365.497,179.464 C365.622,183.208 364.134,187.13 361.35,189.934 C358.617,192.777 354.701,194.51 350.702,194.645 C347.452,194.754 344.184,193.82 341.5,192.038 C341.514,191.365 341.525,190.69 341.525,190.014 C341.525,189.905 341.521,189.796 341.521,189.687 M419.797,226.888 C417.762,248.914 407.272,268.826 390.257,282.962 C375.86,294.925 357.713,301.683 339.05,302.059 L335.812,299.9 L327.978,330.479 L314.115,335.191 L305.651,362.32 L300.843,364.541 L308.705,340.431 L306.464,339.703 L297.925,365.888 L293.202,368.071 L287.453,386.673 L293.894,395.844 L293.038,400.868 L283.989,406.491 L285.752,409.17 L280.371,425.676 L276.553,427.989 L270.712,446.261 L272.169,449.145 L263.752,473.512 L249.606,480.904 L248.792,480.694 L305.133,298.678 L302.882,297.981 L246.509,480.104 L238.054,477.919 L294.549,295.401 L287.801,293.311 L233.171,469.805 L230.198,464.137 L284.558,283.131 L282.847,281.633 C280.888,279.919 279.009,278.087 277.207,276.178 C279.499,275.497 281.753,274.727 283.965,273.872 C285.658,275.52 287.427,277.087 289.309,278.516 L292.247,280.843 C293.259,281.57 294.325,282.226 295.363,282.921 C296.415,283.592 297.433,284.319 298.514,284.94 L301.816,286.709 C310.676,291.285 320.435,294.151 330.352,294.88 C350.201,296.414 370.369,289.733 385.192,276.868 C392.602,270.45 398.734,262.609 403.097,253.909 C407.488,245.218 410.054,235.688 410.833,226.062 C412.406,206.783 406.175,187.101 393.792,172.37 C399.889,179.796 404.534,188.401 407.329,197.578 C410.125,206.757 410.976,216.485 410.003,225.985 C409.003,235.492 406.009,244.734 401.437,253.036 C396.859,261.345 390.632,268.681 383.282,274.569 C375.912,280.434 367.419,284.802 358.447,287.364 C349.474,289.952 340.042,290.694 330.827,289.747 C315.609,288.207 301.173,281.511 289.963,271.298 C318.301,257.887 338.551,230.09 341.22,197.39 C347.716,200.581 355.755,199.888 361.683,194.963 C369.728,188.28 370.832,176.339 364.148,168.294 C357.628,160.447 346.119,159.226 338.089,165.371 C336.236,158.877 333.666,152.684 330.475,146.877 C334.973,146.36 339.525,146.252 344.056,146.609 C353.572,147.394 362.978,150.015 371.492,154.442 C380,158.871 387.609,165.014 393.792,172.37 C381.58,157.497 363.375,147.761 344.133,145.77 C339.373,145.272 334.555,145.216 329.768,145.613 C328.155,142.787 326.391,140.057 324.491,137.432 C331.179,136.394 338.043,136.173 344.963,136.811 C366.988,138.847 386.901,149.338 401.037,166.352 C415.17,183.365 421.833,204.864 419.797,226.888 M288.301,420.87 L283.458,423.804 L287.41,411.686 L289.567,414.962 L288.301,420.87 z M272.185,469.107 L266.793,471.924 L273.65,452.073 L277.114,458.928 L272.185,469.107 z M251.653,272.822 C233.042,272.822 214.871,266.5 200.315,254.993 L199.751,250.477 L173.384,269.574 L159.71,264.341 L135.863,279.798 L130.523,278.375 L151.57,263.916 L127.758,277.637 L122.612,276.265 L106.302,286.9 L105.397,298.067 L101.527,301.385 L90.973,299.929 L90.619,303.119 L75.932,312.374 L71.517,311.715 L55.348,322.034 L54.625,325.186 L32.581,338.551 L16.976,335.194 L16.485,334.513 L176.134,230.513 L174.848,228.54 L15.106,332.6 L10,325.517 L170.086,221.229 L166.23,215.312 L11.427,316.155 L12.761,309.895 L170.241,205.406 L169.883,203.162 C169.195,198.844 168.845,194.42 168.845,190.014 C168.845,144.354 205.992,107.207 251.653,107.207 C252.728,107.207 253.792,107.247 254.858,107.288 C255.256,110.013 255.769,112.716 256.407,115.384 C254.825,115.251 253.24,115.15 251.65,115.117 C241.848,114.947 231.97,116.689 222.774,120.307 C213.585,123.923 205.042,129.338 197.925,136.293 C190.833,143.256 185.042,151.612 181.183,160.829 C177.319,170.039 175.307,180.026 175.265,190.02 C175.316,195.009 175.716,200.023 176.845,204.894 L177.618,208.56 C177.933,209.767 178.333,210.952 178.688,212.149 C179.068,213.338 179.386,214.548 179.821,215.717 L181.23,219.187 C185.121,228.369 190.795,236.81 197.959,243.707 C212.246,257.571 232.027,265.32 251.65,264.897 C261.452,264.695 271.178,262.583 280.093,258.679 C289.025,254.801 297.089,249.11 303.84,242.204 C317.369,228.379 325.154,209.259 325.042,190.014 C324.988,199.623 323.061,209.21 319.346,218.055 C315.63,226.901 310.069,234.928 303.251,241.614 C296.406,248.287 288.198,253.483 279.375,256.947 C270.544,260.413 261.067,262.077 251.65,261.909 C242.233,261.71 232.911,259.642 224.371,255.88 C215.816,252.137 208.086,246.68 201.603,240.063 C188.58,226.811 181.288,208.443 181.264,190.02 C181.166,171.553 188.615,153.236 201.587,139.955 C208.064,133.328 215.792,127.856 224.358,124.127 C232.908,120.374 242.234,118.337 251.65,118.134 C253.484,118.101 255.318,118.158 257.151,118.264 C260.573,130.769 266.615,142.479 274.901,152.544 C270.105,155.98 266.968,161.586 266.968,167.936 C266.968,168.959 267.049,169.963 267.206,170.942 C268.646,179.973 276.47,186.874 285.907,186.874 C296.367,186.874 304.845,178.395 304.845,167.936 C304.845,157.477 296.367,148.998 285.907,148.998 C285.581,148.998 285.263,149.03 284.941,149.046 C278.606,140.453 273.935,130.742 271.177,120.459 C273.953,121.177 276.694,122.041 279.371,123.091 C288.194,126.553 296.399,131.749 303.249,138.417 C310.067,145.102 315.626,153.129 319.346,161.974 C323.06,170.818 324.987,180.405 325.042,190.014 C325.153,170.77 317.372,151.648 303.843,137.821 C297.096,130.91 289.029,125.221 280.098,121.338 C277.002,119.983 273.804,118.858 270.543,117.939 C269.853,115.009 269.318,112.037 268.94,109.035 C306.329,117.009 334.462,150.282 334.462,190.014 C334.462,235.674 297.313,272.822 251.653,272.822 M89.853,310.012 L85.103,313.744 L79.501,312.907 L90.286,306.111 L89.853,310.012 z M52.177,335.87 L41.88,340.551 L35.932,339.271 L53.893,328.383 L52.177,335.87 z M273.566,169.229 C274.4,172.62 276.371,175.668 279.104,177.751 C281.802,179.886 285.25,180.994 288.75,180.966 C292.246,180.913 295.791,179.694 298.746,177.389 C296.449,180.349 292.798,182.415 288.865,182.793 C284.946,183.233 280.827,182.064 277.664,179.612 C274.506,177.164 272.308,173.494 271.761,169.577 C271.605,168.605 271.648,167.611 271.612,166.642 C271.64,165.668 271.8,164.702 272.02,163.763 C272.535,161.901 273.315,160.124 274.488,158.651 C272.987,162.091 272.75,165.829 273.566,169.229 M277.815,42.887 C288.098,29.276 302.374,18.855 318.879,13.346 C285.7,26.848 262.129,59.203 261.543,97.039 C262.613,119.353 272.492,140.556 289.025,155.729 L288.113,156.722 C270.653,140.639 260.64,117.821 260.64,94.093 C260.64,74.885 267.042,57.147 277.815,42.887 M430.887,94.093 C430.887,112.549 424.972,129.64 414.95,143.595 C411.108,148.944 406.666,153.833 401.718,158.16 L401.718,157.76 C401.924,157.584 402.125,157.402 402.33,157.225 C380.52,134.351 348.984,125.297 319.548,131.193 C306.53,116.186 288.627,105.528 268.342,101.702 C268.301,100.631 268.274,99.558 268.274,98.482 C268.274,51.545 306.46,13.359 353.398,13.359 C367.213,13.359 380.257,16.688 391.806,22.554 C415.293,37.723 430.887,64.113 430.887,94.093 M445.271,98.482 C445.271,67.958 430.304,40.868 407.328,24.151 C426.392,40.998 438.438,65.616 438.438,92.998 C438.438,93.454 438.424,93.907 438.417,94.361 C438.484,95.728 438.523,97.101 438.523,98.482 C438.523,124.666 426.623,148.104 407.964,163.729 C407.633,163.308 407.308,162.884 406.968,162.468 C411.707,158.225 416.004,153.5 419.784,148.371 C430.991,133.159 437.635,114.398 437.635,94.093 C437.635,43.434 396.423,2.22 345.764,2.22 C315.716,2.22 288.992,16.72 272.219,39.091 C260.714,54.436 253.891,73.482 253.891,94.093 C253.891,96.129 253.967,98.157 254.102,100.176 C253.289,100.155 252.472,100.142 251.653,100.142 C202.098,100.142 161.781,140.459 161.781,190.014 C161.781,194.026 162.048,198.053 162.577,202.014 L6.453,305.604 L2,326.501 L12.834,341.529 L42.677,347.948 L58.282,340.854 L61.587,326.432 L73.087,319.092 L87.074,321.183 L96.546,313.732 L97.193,307.918 L103.71,308.817 L112.203,301.538 L113.063,290.926 L123.834,283.901 L137.073,287.43 L160.538,272.221 L174.43,277.537 L196.886,261.275 C212.52,273.295 231.86,279.885 251.653,279.885 C257.738,279.885 263.682,279.273 269.431,278.115 C271.653,280.679 274.012,283.132 276.495,285.42 L222.604,464.866 L232.531,483.786 L250.468,488.422 L277.525,474.288 L284.995,458.861 L278.321,445.656 L282.476,432.66 L294.571,425.33 L297.095,413.547 L293.878,408.662 L299.465,405.189 L301.346,394.162 L295.226,385.448 L299.022,373.162 L311.46,367.419 L319.791,340.724 L333.874,335.936 L340.753,309.077 C360.46,308.334 379.546,301.045 394.773,288.395 C413.237,273.054 424.624,251.442 426.833,227.539 C428.758,206.702 423.505,186.301 411.966,169.178 C432.292,152.316 445.271,126.895 445.271,98.482" fill="#0B0B09"/>
  </g>
</svg>
